<mxfile host="app.diagrams.net" modified="2024-06-29T18:05:50.553Z" agent="Mozilla/5.0 (Macintosh; Intel Mac OS X 10_15_7) AppleWebKit/537.36 (KHTML, like Gecko) Chrome/126.0.0.0 Safari/537.36" etag="Qpl0eYFcU4y-sz8zwxt7" version="24.6.4" type="device">
  <diagram name="Page-1" id="FsVHrugh5gQOvmboOso-">
    <mxGraphModel dx="1249" dy="837" grid="1" gridSize="10" guides="1" tooltips="1" connect="1" arrows="1" fold="1" page="1" pageScale="1" pageWidth="827" pageHeight="1169" math="0" shadow="0">
      <root>
        <mxCell id="0" />
        <mxCell id="1" parent="0" />
        <mxCell id="AIgW1asED2CYLws8F6yZ-24" value="" style="rounded=0;whiteSpace=wrap;html=1;" vertex="1" parent="1">
          <mxGeometry x="80" y="430" width="230" height="420" as="geometry" />
        </mxCell>
        <mxCell id="AIgW1asED2CYLws8F6yZ-25" value="Master OR Control Plane" style="text;html=1;align=center;verticalAlign=middle;whiteSpace=wrap;rounded=0;" vertex="1" parent="1">
          <mxGeometry x="125" y="390" width="140" height="30" as="geometry" />
        </mxCell>
        <mxCell id="AIgW1asED2CYLws8F6yZ-26" value="" style="rounded=0;whiteSpace=wrap;html=1;" vertex="1" parent="1">
          <mxGeometry x="430" y="435" width="366" height="150" as="geometry" />
        </mxCell>
        <mxCell id="AIgW1asED2CYLws8F6yZ-27" value="Worker Node" style="text;html=1;align=center;verticalAlign=middle;whiteSpace=wrap;rounded=0;" vertex="1" parent="1">
          <mxGeometry x="590" y="394" width="100" height="30" as="geometry" />
        </mxCell>
        <mxCell id="AIgW1asED2CYLws8F6yZ-33" style="edgeStyle=orthogonalEdgeStyle;rounded=0;orthogonalLoop=1;jettySize=auto;html=1;" edge="1" parent="1" source="AIgW1asED2CYLws8F6yZ-28" target="AIgW1asED2CYLws8F6yZ-32">
          <mxGeometry relative="1" as="geometry" />
        </mxCell>
        <mxCell id="AIgW1asED2CYLws8F6yZ-28" value="Kube API Server" style="rounded=1;whiteSpace=wrap;html=1;" vertex="1" parent="1">
          <mxGeometry x="210" y="600" width="80" height="40" as="geometry" />
        </mxCell>
        <mxCell id="AIgW1asED2CYLws8F6yZ-30" style="edgeStyle=orthogonalEdgeStyle;rounded=0;orthogonalLoop=1;jettySize=auto;html=1;" edge="1" parent="1" source="AIgW1asED2CYLws8F6yZ-29" target="AIgW1asED2CYLws8F6yZ-28">
          <mxGeometry relative="1" as="geometry" />
        </mxCell>
        <mxCell id="AIgW1asED2CYLws8F6yZ-29" value="Kubectl" style="shape=umlActor;verticalLabelPosition=bottom;verticalAlign=top;html=1;outlineConnect=0;" vertex="1" parent="1">
          <mxGeometry x="360" y="1030" width="30" height="60" as="geometry" />
        </mxCell>
        <mxCell id="AIgW1asED2CYLws8F6yZ-31" value="ETCD" style="rounded=1;whiteSpace=wrap;html=1;" vertex="1" parent="1">
          <mxGeometry x="90" y="750" width="70" height="30" as="geometry" />
        </mxCell>
        <mxCell id="AIgW1asED2CYLws8F6yZ-36" style="edgeStyle=orthogonalEdgeStyle;rounded=0;orthogonalLoop=1;jettySize=auto;html=1;" edge="1" parent="1" source="AIgW1asED2CYLws8F6yZ-32" target="AIgW1asED2CYLws8F6yZ-26">
          <mxGeometry relative="1" as="geometry" />
        </mxCell>
        <mxCell id="AIgW1asED2CYLws8F6yZ-32" value="Scheduler" style="rounded=1;whiteSpace=wrap;html=1;" vertex="1" parent="1">
          <mxGeometry x="100" y="470" width="80" height="30" as="geometry" />
        </mxCell>
        <mxCell id="AIgW1asED2CYLws8F6yZ-34" value="" style="rounded=0;whiteSpace=wrap;html=1;" vertex="1" parent="1">
          <mxGeometry x="430" y="610" width="366" height="150" as="geometry" />
        </mxCell>
        <mxCell id="AIgW1asED2CYLws8F6yZ-35" value="" style="rounded=0;whiteSpace=wrap;html=1;" vertex="1" parent="1">
          <mxGeometry x="430" y="800" width="366" height="150" as="geometry" />
        </mxCell>
        <mxCell id="AIgW1asED2CYLws8F6yZ-38" style="edgeStyle=orthogonalEdgeStyle;rounded=0;orthogonalLoop=1;jettySize=auto;html=1;" edge="1" parent="1" source="AIgW1asED2CYLws8F6yZ-37" target="AIgW1asED2CYLws8F6yZ-24">
          <mxGeometry relative="1" as="geometry" />
        </mxCell>
        <mxCell id="AIgW1asED2CYLws8F6yZ-39" style="edgeStyle=orthogonalEdgeStyle;rounded=0;orthogonalLoop=1;jettySize=auto;html=1;entryX=0.75;entryY=0;entryDx=0;entryDy=0;" edge="1" parent="1" source="AIgW1asED2CYLws8F6yZ-37" target="AIgW1asED2CYLws8F6yZ-31">
          <mxGeometry relative="1" as="geometry" />
        </mxCell>
        <mxCell id="AIgW1asED2CYLws8F6yZ-40" style="edgeStyle=orthogonalEdgeStyle;rounded=0;orthogonalLoop=1;jettySize=auto;html=1;entryX=0.25;entryY=1;entryDx=0;entryDy=0;" edge="1" parent="1" source="AIgW1asED2CYLws8F6yZ-37" target="AIgW1asED2CYLws8F6yZ-28">
          <mxGeometry relative="1" as="geometry" />
        </mxCell>
        <mxCell id="AIgW1asED2CYLws8F6yZ-37" value="Controller Manager" style="rounded=1;whiteSpace=wrap;html=1;" vertex="1" parent="1">
          <mxGeometry x="100" y="650" width="90" height="30" as="geometry" />
        </mxCell>
        <mxCell id="AIgW1asED2CYLws8F6yZ-49" style="edgeStyle=orthogonalEdgeStyle;rounded=0;orthogonalLoop=1;jettySize=auto;html=1;" edge="1" parent="1" source="AIgW1asED2CYLws8F6yZ-41" target="AIgW1asED2CYLws8F6yZ-47">
          <mxGeometry relative="1" as="geometry" />
        </mxCell>
        <mxCell id="AIgW1asED2CYLws8F6yZ-41" value="Kubelet" style="rounded=0;whiteSpace=wrap;html=1;" vertex="1" parent="1">
          <mxGeometry x="470" y="455" width="80" height="45" as="geometry" />
        </mxCell>
        <mxCell id="AIgW1asED2CYLws8F6yZ-42" value="" style="rounded=1;whiteSpace=wrap;html=1;" vertex="1" parent="1">
          <mxGeometry x="460" y="520" width="320" height="60" as="geometry" />
        </mxCell>
        <mxCell id="AIgW1asED2CYLws8F6yZ-43" value="" style="aspect=fixed;sketch=0;html=1;dashed=0;whitespace=wrap;verticalLabelPosition=bottom;verticalAlign=top;fillColor=#2875E2;strokeColor=#ffffff;points=[[0.005,0.63,0],[0.1,0.2,0],[0.9,0.2,0],[0.5,0,0],[0.995,0.63,0],[0.72,0.99,0],[0.5,1,0],[0.28,0.99,0]];shape=mxgraph.kubernetes.icon2;kubernetesLabel=1;prIcon=pod" vertex="1" parent="1">
          <mxGeometry x="470" y="526" width="35.42" height="34" as="geometry" />
        </mxCell>
        <mxCell id="AIgW1asED2CYLws8F6yZ-44" value="" style="aspect=fixed;sketch=0;html=1;dashed=0;whitespace=wrap;verticalLabelPosition=bottom;verticalAlign=top;fillColor=#2875E2;strokeColor=#ffffff;points=[[0.005,0.63,0],[0.1,0.2,0],[0.9,0.2,0],[0.5,0,0],[0.995,0.63,0],[0.72,0.99,0],[0.5,1,0],[0.28,0.99,0]];shape=mxgraph.kubernetes.icon2;kubernetesLabel=1;prIcon=pod" vertex="1" parent="1">
          <mxGeometry x="520" y="526" width="35.42" height="34" as="geometry" />
        </mxCell>
        <mxCell id="AIgW1asED2CYLws8F6yZ-45" value="" style="aspect=fixed;sketch=0;html=1;dashed=0;whitespace=wrap;verticalLabelPosition=bottom;verticalAlign=top;fillColor=#2875E2;strokeColor=#ffffff;points=[[0.005,0.63,0],[0.1,0.2,0],[0.9,0.2,0],[0.5,0,0],[0.995,0.63,0],[0.72,0.99,0],[0.5,1,0],[0.28,0.99,0]];shape=mxgraph.kubernetes.icon2;kubernetesLabel=1;prIcon=pod" vertex="1" parent="1">
          <mxGeometry x="570" y="526" width="35.42" height="34" as="geometry" />
        </mxCell>
        <mxCell id="AIgW1asED2CYLws8F6yZ-46" style="edgeStyle=orthogonalEdgeStyle;rounded=0;orthogonalLoop=1;jettySize=auto;html=1;entryX=0.159;entryY=0.015;entryDx=0;entryDy=0;entryPerimeter=0;" edge="1" parent="1" source="AIgW1asED2CYLws8F6yZ-41" target="AIgW1asED2CYLws8F6yZ-42">
          <mxGeometry relative="1" as="geometry" />
        </mxCell>
        <mxCell id="AIgW1asED2CYLws8F6yZ-47" value="CRI (Container Runtime)" style="rounded=1;whiteSpace=wrap;html=1;" vertex="1" parent="1">
          <mxGeometry x="590" y="449" width="70" height="57" as="geometry" />
        </mxCell>
        <mxCell id="AIgW1asED2CYLws8F6yZ-50" style="edgeStyle=orthogonalEdgeStyle;rounded=0;orthogonalLoop=1;jettySize=auto;html=1;entryX=0.623;entryY=0.624;entryDx=0;entryDy=0;entryPerimeter=0;" edge="1" parent="1" source="AIgW1asED2CYLws8F6yZ-47" target="AIgW1asED2CYLws8F6yZ-45">
          <mxGeometry relative="1" as="geometry" />
        </mxCell>
        <mxCell id="AIgW1asED2CYLws8F6yZ-51" value="Kube-proxy" style="rounded=1;whiteSpace=wrap;html=1;" vertex="1" parent="1">
          <mxGeometry x="680" y="450.5" width="80" height="54" as="geometry" />
        </mxCell>
        <mxCell id="AIgW1asED2CYLws8F6yZ-52" value="App - Browser" style="shape=umlActor;verticalLabelPosition=bottom;verticalAlign=top;html=1;outlineConnect=0;" vertex="1" parent="1">
          <mxGeometry x="540" y="1040" width="30" height="60" as="geometry" />
        </mxCell>
      </root>
    </mxGraphModel>
  </diagram>
</mxfile>
